PathFileType	4	(X/Y/Z)	E:\Qualisys_Data\Carbon_Farble_Plate\Data\Amateur_Runner\S14\T1\S14T1V22_c3d.trc
DataRate	CameraRate	NumFrames	NumMarkers	Units	OrigDataRate	OrigDataStartFrame	OrigNumFrames
200.000000	200.000000	4	39	mm	200.000000	190	304
Frame#	Time	LSHO			RSHO			LICST			RICST			LASIS			LHEEL			RASIS			LTROC			RTROC			SACR			LTH1			LSK4			LTH2			LTH3			RHM5			LSK2			LTH4			RTH1			LTOE			RTH2			RTH3			RTH4			LLEP			RLEP			LSK1			LSK3			RSK1			LHM5			RSK2			LFT1			RSK3			RSK4			LLME			RLME			RTOE			RHEEL			RFT1			RFT2			LFT2			
		X1	Y1	Z1	X2	Y2	Z2	X3	Y3	Z3	X4	Y4	Z4	X5	Y5	Z5	X6	Y6	Z6	X7	Y7	Z7	X8	Y8	Z8	X9	Y9	Z9	X10	Y10	Z10	X11	Y11	Z11	X12	Y12	Z12	X13	Y13	Z13	X14	Y14	Z14	X15	Y15	Z15	X16	Y16	Z16	X17	Y17	Z17	X18	Y18	Z18	X19	Y19	Z19	X20	Y20	Z20	X21	Y21	Z21	X22	Y22	Z22	X23	Y23	Z23	X24	Y24	Z24	X25	Y25	Z25	X26	Y26	Z26	X27	Y27	Z27	X28	Y28	Z28	X29	Y29	Z29	X30	Y30	Z30	X31	Y31	Z31	X32	Y32	Z32	X33	Y33	Z33	X34	Y34	Z34	X35	Y35	Z35	X36	Y36	Z36	X37	Y37	Z37	X38	Y38	Z38	X39	Y39	Z39	

191	0.95	1044.547607421875	1420.121337890625	-516.2683715820312	1140.619140625	1408.040405273438	-230.5969696044922	1037.820922851562	971.5570678710938	-502.1030578613281	1078.434448242188	959.62451171875	-229.3331604003906	1079.18603515625	921.92236328125	-480.6696472167969	864.4288330078125	392.0000305175781	-389.866943359375	1099.609375	916.9639892578124	-249.2213592529297	949.857177734375	855.7393188476562	-525.71533203125	947.1905517578124	875.0661010742188	-195.7660675048828	917.6405029296876	975.255126953125	-357.4200744628906	1167.337158203125	701.3777465820312	-533.1514282226562	1049.861206054688	487.7947387695312	-478.6267700195312	1109.858154296875	650.6947631835938	-515.1369018554688	1237.795043945312	632.46875	-511.6848449707031	721.0020141601562	57.91452789306641	-244.6424865722656	1132.339965820312	538.7771606445312	-500.3385314941406	1177.459350585938	582.17138671875	-494.9233703613281	1017.103271484375	618.5537109375	-212.9695587158203	1024.833862304688	189.9355773925781	-423.6734619140625	943.7284545898438	642.3836059570312	-199.7884826660156	985.70361328125	527.3737182617188	-247.8737640380859	908.2294921875	549.25634765625	-223.7551879882812	1243.638916015625	560.302001953125	-505.6696166992188	903.3406372070312	472.6885986328125	-237.0248107910156	1177.89306640625	470.9901428222656	-492.3251647949219	1091.77978515625	419.24609375	-470.9772644042969	855.9823608398438	354.3722534179688	-238.0726470947266	969.6936645507812	234.6267852783203	-481.1379089355469	787.1652221679688	403.1747741699219	-225.0633087158203	856.0284423828125	366.0867919921875	-363.3243103027344	788.7825317382812	275.9243774414062	-252.533935546875	729.5755004882812	326.7021789550781	-238.9701385498047	926.20654296875	367.61962890625	-450.386962890625	643.97314453125	170.3231201171875	-264.7337646484375	782.1305541992188	43.29152297973633	-314.2291564941406	576.618408203125	173.6375885009766	-315.1005249023438	574.5859985351562	142.5391540527344	-345.6033630371094	568.3952026367188	152.0749359130859	-286.9565734863281	845.9091796875	375.4584655761719	-418.2173461914062
192	0.955	1062.952514648438	1424.441772460938	-516.7160034179688	1161.070434570312	1412.651977539062	-232.6350402832031	1057.726318359375	976.3955078125	-502.5890197753906	1100.645385742188	962.6250610351562	-229.7496185302734	1100.166748046875	927.353759765625	-481.1815185546875	896.2327880859375	377.6700134277344	-391.2371215820312	1121.4150390625	919.995361328125	-249.8665008544922	972.5264892578124	861.2861328125	-526.8151245117188	968.383544921875	879.569580078125	-195.1742095947266	939.5724487304688	978.8818359375	-356.71435546875	1191.135131835938	707.4083862304688	-532.66748046875	1076.798828125	483.3002014160156	-478.98974609375	1133.808227539062	656.447021484375	-515.8211669921875	1261.621337890625	638.904296875	-510.9414978027344	722.834228515625	58.07349014282227	-244.6358184814453	1157.00244140625	538.4876098632812	-499.6390686035156	1201.06396484375	587.5992431640625	-495.8248901367188	1032.06591796875	621.951416015625	-213.9828186035156	1067.64111328125	184.2014007568359	-423.6318664550781	960.0209350585938	647.8287353515625	-199.5218811035156	998.565185546875	531.7020874023438	-247.9799346923828	921.9957275390624	555.7332763671875	-223.0579833984375	1266.792236328125	567.1087036132812	-505.330078125	915.0200805664062	479.0468139648438	-236.7425537109375	1206.277954101562	472.2392578125	-492.4363403320312	1122.1748046875	416.6938781738281	-470.8728332519531	865.839111328125	361.6086120605469	-236.4312591552734	1010.482360839844	225.8489990234375	-481.1770935058594	796.788330078125	410.5839233398438	-224.2700805664062	890.3234252929688	351.0869445800781	-363.3137512207031	798.4335327148438	283.3309936523438	-251.0385894775391	738.56884765625	334.3796081542969	-238.68408203125	959.2874145507812	356.3552856445312	-450.8914794921875	653.9982299804688	176.5038299560547	-264.185546875	784.4865112304688	43.15837860107422	-313.3098754882812	587.3897705078125	183.8941497802734	-314.0495910644531	583.9149169921875	153.1945037841797	-344.9579162597656	578.2769775390625	162.5623168945312	-286.2455749511719	879.6688232421875	359.0931396484375	-417.5647888183594
193	0.96	1081.498291015625	1428.680541992188	-516.8978271484375	1181.479614257812	1417.331787109375	-234.3874359130859	1077.20458984375	981.7552490234376	-502.7880554199219	1123.094848632812	966.0086669921876	-230.0552215576172	1120.686279296875	931.7179565429688	-480.083251953125	929.102783203125	362.89013671875	-391.2067565917969	1143.369262695312	923.253173828125	-250.6471862792969	994.8810424804688	866.9078979492188	-529.0194702148438	989.6403198242188	883.6754760742188	-194.7688751220703	961.3607177734376	982.6414794921876	-356.873779296875	1214.75146484375	713.3159790039062	-532.015869140625	1104.13818359375	478.2158203125	-478.6189270019531	1157.411865234375	662.1516723632812	-517.2503662109375	1285.488647460938	644.6531982421875	-510.0347595214844	727.7103271484375	59.90505218505859	-243.3767700195312	1181.06982421875	537.4368896484375	-499.16259765625	1224.608764648438	592.7601928710938	-498.3749084472656	1047.5625	625.5125732421875	-214.3277282714844	1110.680908203125	179.3638000488281	-423.4776000976562	976.4246826171876	653.568115234375	-198.7002868652344	1012.237854003906	536.3939819335938	-248.1358795166016	935.8002319335938	561.91552734375	-222.8589019775391	1290.492919921875	571.7223510742188	-504.5093383789062	926.8309326171876	485.3348388671875	-235.9254455566406	1233.549560546875	474.126953125	-492.1419982910156	1152.509033203125	414.2266540527344	-470.9588317871094	876.1961059570312	368.9231567382812	-235.1136474609375	1051.0068359375	217.4911041259766	-481.3316040039062	806.9155883789062	418.0619812011719	-223.5628967285156	923.0745239257812	336.1294860839844	-364.7127380371094	808.8146362304688	290.171630859375	-249.2817230224609	748.8255004882812	342.0829162597656	-237.5109405517578	993.3930053710938	345.1298828125	-451.2173461914062	664.3034057617188	183.6949462890625	-263.19384765625	787.1220092773438	42.52453994750977	-311.8155517578125	599.3779296875	194.3253479003906	-313.0702209472656	594.4990234375	163.5521545410156	-344.2709045410156	589.0263061523438	173.1900482177734	-285.8135070800781	913.3724975585938	343.4350891113281	-418.0489196777344
194	0.965	1099.816772460938	1432.908935546875	-517.607177734375	1202.076171875	1421.67333984375	-236.3851318359375	1097.436767578125	986.3755493164062	-503.5751037597656	1145.323608398438	969.1597900390624	-230.8512420654297	1142.2451171875	936.8798828125	-480.6270446777344	962.565185546875	348.5298156738281	-391.5631713867188	1165.00634765625	926.0462036132812	-251.5928955078125	1017.533508300781	871.907958984375	-530.0436401367188	1010.8251953125	888.1923828125	-195.0323028564453	983.1522216796876	986.3589477539062	-356.8081970214844	1237.976806640625	718.6337890625	-531.540283203125	1131.0185546875	472.5361938476562	-478.6802978515625	1180.717407226562	666.7877197265625	-517.9677124023438	1308.215576171875	650.102783203125	-509.8580017089844	731.6032104492188	62.16299438476562	-242.5262298583984	1205.059448242188	535.9918823242188	-499.1966857910156	1247.877807617188	598.3884887695312	-497.1810302734375	1063.56298828125	629.6744995117188	-214.2644348144531	1153.703002929688	174.7082672119141	-423.2904357910156	992.9810180664062	658.8313598632812	-198.6445922851562	1025.069946289062	540.4979248046875	-248.2705688476562	950.2047119140624	568.4144897460938	-222.0254974365234	1313.627807617188	575.9768676757812	-503.8074035644531	939.2171020507812	491.8740539550781	-235.1709747314453	1260.526123046875	475.4833374023438	-492.0086364746094	1183.05322265625	411.271484375	-470.9585571289062	886.6193237304688	376.3103637695312	-233.7662353515625	1092.279052734375	209.5882873535156	-481.2274475097656	817.6007690429688	425.9908142089844	-222.8545837402344	957.8287353515624	321.1807250976562	-365.06396484375	820.023193359375	297.6759033203125	-247.1700134277344	759.693359375	349.4376525878906	-237.2440948486328	1027.363525390625	334.1862487792969	-451.4963073730469	675.1669921875	190.5811462402344	-262.0624084472656	789.820556640625	41.65844345092773	-310.7336730957031	612.333251953125	204.8939361572266	-312.4436340332031	605.96826171875	174.7281188964844	-343.9598083496094	600.68408203125	184.2772521972656	-285.4314575195312	947.4395751953124	328.4693298339844	-418.6998901367188
